<?xml version="1.0" encoding="UTF-8"?>
<svg version="1.1" xmlns="http://www.w3.org/2000/svg" width="150" height="150">
<path d="M0 0 C1.99674102 -0.0008304 3.99348196 -0.00329621 5.99021912 -0.00730896 C10.15669551 -0.01015371 14.32263042 0.00440569 18.48901367 0.03198242 C23.80368707 0.06608477 29.11739476 0.06002669 34.4321146 0.04131985 C38.54937149 0.0307039 42.66640734 0.03972893 46.78364372 0.05470467 C48.74226155 0.05985175 50.70090279 0.05944736 52.65951729 0.05315971 C67.94922939 0.02248773 79.32576105 1.42672161 90.95703125 12.1484375 C101.37669063 23.01767609 101.05605893 36.44709227 100.97265625 50.50390625 C100.97603187 52.52067354 100.98089067 54.53743883 100.9871521 56.55419922 C100.99448824 60.76354503 100.98392353 64.97235727 100.96044922 69.18164062 C100.93196369 74.54790736 100.94838523 79.91292332 100.97831154 85.27914429 C100.99647295 89.43848917 100.99058611 93.5975428 100.97767258 97.75689697 C100.97436295 99.73423413 100.97833848 101.71159868 100.99007034 103.68890381 C101.05891409 118.54916821 99.68012563 130.21609787 88.91796875 141.4296875 C80.67636081 148.37583311 72.1651824 150.77149369 61.65966797 150.8059082 C60.78757187 150.8124794 59.91547577 150.8190506 59.01695251 150.82582092 C56.13239449 150.84552079 53.24788852 150.85721074 50.36328125 150.8671875 C49.37546787 150.87126303 48.3876545 150.87533855 47.36990738 150.87953758 C42.13885966 150.90038674 36.90783807 150.91469204 31.67675781 150.92407227 C26.29013101 150.93511895 20.9039193 150.96950223 15.51743889 151.00924397 C11.36167669 151.03546981 7.20601238 151.04376953 3.05017471 151.04735374 C1.06557546 151.05220625 -0.91901982 151.06378185 -2.90353775 151.08239174 C-22.7936875 151.25728134 -22.7936875 151.25728134 -30.69140625 146.62890625 C-31.74328125 146.03078125 -32.79515625 145.43265625 -33.87890625 144.81640625 C-41.80262169 138.65351647 -47.53314722 131.67710853 -49.69140625 121.62890625 C-49.80136846 118.74354131 -49.85893665 115.88163885 -49.8684082 112.99584961 C-49.8749794 112.1253598 -49.8815506 111.25487 -49.88832092 110.35800171 C-49.90802279 107.47825019 -49.91971197 104.59855086 -49.9296875 101.71875 C-49.93376303 100.73218477 -49.93783855 99.74561954 -49.94203758 98.7291584 C-49.96288886 93.50344173 -49.97719253 88.27775121 -49.98657227 83.05200195 C-49.99761178 77.67444109 -50.03198611 72.29729684 -50.07174397 66.91988277 C-50.09799057 62.76836926 -50.10627142 58.61695362 -50.10985374 54.46536446 C-50.11470189 52.48438274 -50.12626487 50.50340488 -50.14489174 48.52250481 C-50.28081919 33.10408141 -48.99184673 21.71833011 -38.171875 9.98046875 C-27.34006719 -0.40330808 -14.00776704 -0.10606965 0 0 Z " fill="#FDBA02" transform="translate(49.69140625,-0.62890625)"/>
<path d="M0 0 C1.25190125 -0.00953201 2.50380249 -0.01906403 3.79364014 -0.02888489 C5.15311715 -0.02862335 6.51259417 -0.02768579 7.87207031 -0.02612305 C9.27826055 -0.03001467 10.68444963 -0.0343503 12.09063721 -0.03910828 C15.0360495 -0.04655893 17.98134193 -0.04628871 20.92675781 -0.04101562 C24.68015868 -0.03523804 28.43306333 -0.05211557 32.18638229 -0.0753603 C35.09139827 -0.09018012 37.99629721 -0.09095795 40.9013443 -0.08785057 C42.28387684 -0.08836017 43.66641656 -0.09352917 45.04891205 -0.10366249 C63.58728086 -0.22282425 63.58728086 -0.22282425 70.57519531 6.0871582 C71.10886719 6.54735352 71.64253906 7.00754883 72.19238281 7.48168945 C76.03182306 12.04724146 77.07756347 16.29387619 77.10424805 22.1628418 C77.1111113 22.82386398 77.11797455 23.48488617 77.12504578 24.16593933 C77.14323703 26.33521457 77.13948703 28.50376109 77.13378906 30.6730957 C77.1383552 32.19235466 77.14366206 33.71161155 77.14967346 35.23086548 C77.15858995 38.40993659 77.15619903 41.58875632 77.14624023 44.76782227 C77.13476345 48.82522088 77.15494877 52.88174748 77.18415737 56.9390316 C77.20257952 60.07564737 77.20221485 63.21205658 77.19651985 66.34871292 C77.19636731 67.84371792 77.20235576 69.33873752 77.21481133 70.83369064 C77.29242254 81.67696049 76.28989944 89.03718941 68.45800781 97.0480957 C63.99225225 100.1642007 59.12943156 100.53584434 53.82788086 100.59692383 C53.16846497 100.60685364 52.50904907 100.61678345 51.82965088 100.62701416 C49.66536158 100.65603313 47.50136529 100.66982241 45.33691406 100.6809082 C44.59240305 100.68656296 43.84789204 100.69221771 43.08082008 100.69804382 C39.1411868 100.72793724 35.20169828 100.74645323 31.26196289 100.75512695 C27.21336948 100.7660872 23.16612449 100.81414395 19.1179533 100.87107086 C15.98560326 100.90850055 12.85357253 100.91874396 9.72101784 100.92179871 C8.22956784 100.92781275 6.73812082 100.94373731 5.24689293 100.97016907 C-3.64415004 101.11652252 -10.59392937 100.72018391 -17.29980469 94.2746582 C-21.73664289 88.70016919 -23.54278303 83.86851383 -23.59033203 76.77539062 C-23.60309174 75.48022018 -23.61585144 74.18504974 -23.6289978 72.85063171 C-23.63205594 71.44379832 -23.63428344 70.03696291 -23.63574219 68.63012695 C-23.64217537 67.17670055 -23.64890412 65.72327542 -23.65591431 64.26985168 C-23.6678714 61.22609457 -23.67159683 58.18245081 -23.67041016 55.13867188 C-23.67020722 51.25502631 -23.69748893 47.37211462 -23.73195457 43.48864269 C-23.75429018 40.4867271 -23.75824565 37.48498614 -23.7571907 34.48299599 C-23.75953744 33.05217273 -23.76830833 31.62134397 -23.78385544 30.19060326 C-23.87500632 20.93480747 -23.64006539 14.22756008 -17.33496094 7.0324707 C-16.68398438 6.49364258 -16.03300781 5.95481445 -15.36230469 5.3996582 C-14.71390625 4.84536133 -14.06550781 4.29106445 -13.39746094 3.7199707 C-9.03089479 0.7113497 -5.25551996 0.0220389 0 0 Z " fill="#F9B905" transform="translate(48.2998046875,24.725341796875)"/>
<path d="M0 0 C1.23073242 -0.06864258 1.23073242 -0.06864258 2.48632812 -0.13867188 C3.28103516 -0.15349609 4.07574219 -0.16832031 4.89453125 -0.18359375 C5.6213208 -0.2086499 6.34811035 -0.23370605 7.09692383 -0.25952148 C10.54194701 0.88908779 11.46618642 3.34944309 13.1875 6.4375 C14.1597531 8.79329892 15.05343113 11.18259769 15.87890625 13.59375 C16.11028793 14.25910767 16.34166962 14.92446533 16.58006287 15.60998535 C17.31143844 17.71647548 18.03146255 19.82659988 18.75 21.9375 C19.47365251 24.04781086 20.19982496 26.1571762 20.9306488 28.26501465 C21.59272108 30.17676444 22.24690811 32.09123971 22.90063477 34.00585938 C24.13057913 37.285711 25.56054303 40.33830851 27.1875 43.4375 C27.75464722 41.84881104 27.75464722 41.84881104 28.33325195 40.22802734 C29.74400414 36.27939534 31.15972098 32.33255838 32.5769043 28.38623047 C33.18827577 26.6816343 33.79832004 24.97656148 34.40698242 23.27099609 C35.28471585 20.81219421 36.16729006 18.35517549 37.05078125 15.8984375 C37.31965652 15.14194916 37.5885318 14.38546082 37.86555481 13.60604858 C41.73390857 2.89109143 41.73390857 2.89109143 44.1875 0.4375 C46.88404854 0.36430379 49.55441458 0.34507463 52.25 0.375 C53.00861328 0.37951172 53.76722656 0.38402344 54.54882812 0.38867188 C56.42841871 0.4004932 58.30796899 0.41842922 60.1875 0.4375 C62.08198776 5.65761973 59.93455042 9.39828908 57.84765625 14.19140625 C57.48788193 15.04693588 57.1281076 15.90246552 56.75743103 16.78392029 C55.60054064 19.52799277 54.42593349 22.26404143 53.25 25 C52.11495233 27.67257211 50.98364974 30.34670536 49.85287476 33.02108765 C49.09958266 34.80085844 48.34406908 36.57969062 47.58633423 38.35757446 C44.50778861 45.60052565 41.58108328 52.89888949 38.74684143 60.24085999 C38.43907272 61.02625656 38.13130402 61.81165314 37.81420898 62.62084961 C37.54720688 63.31182236 37.28020477 64.0027951 37.00511169 64.71470642 C36.1875 66.4375 36.1875 66.4375 34.1875 68.4375 C31.32889702 68.68964344 28.6092894 68.8077778 25.75 68.8125 C24.97333984 68.83699219 24.19667969 68.86148438 23.39648438 68.88671875 C21.12890625 68.8984375 21.12890625 68.8984375 17.1875 68.4375 C14.52444432 65.63946752 13.27340842 62.51826781 11.91015625 58.94140625 C11.27182861 57.28685425 11.27182861 57.28685425 10.62060547 55.59887695 C9.94215576 53.81743286 9.94215576 53.81743286 9.25 52 C8.27694606 49.48348691 7.30223725 46.96770418 6.32421875 44.453125 C6.07198547 43.80362381 5.8197522 43.15412262 5.55987549 42.48493958 C2.65682144 35.03379412 -0.38076125 27.63914268 -3.4375 20.25 C-3.83278397 19.28986496 -3.83278397 19.28986496 -4.23605347 18.31033325 C-4.98008472 16.50390801 -5.72822212 14.69917563 -6.4765625 12.89453125 C-6.90404785 11.86303955 -7.3315332 10.83154785 -7.77197266 9.76879883 C-8.60769614 7.52313369 -8.60769614 7.52313369 -9.8125 6.4375 C-9.9375 3.9375 -9.9375 3.9375 -9.8125 1.4375 C-7.63369386 -0.74130614 -3.00155049 0.06742445 0 0 Z " fill="#1C3045" transform="translate(49.8125,41.5625)"/>
<path d="M0 0 C1.25190125 -0.00953201 2.50380249 -0.01906403 3.79364014 -0.02888489 C5.15311715 -0.02862335 6.51259417 -0.02768579 7.87207031 -0.02612305 C9.27826055 -0.03001467 10.68444963 -0.0343503 12.09063721 -0.03910828 C15.0360495 -0.04655893 17.98134193 -0.04628871 20.92675781 -0.04101562 C24.68015868 -0.03523804 28.43306333 -0.05211557 32.18638229 -0.0753603 C35.09139827 -0.09018012 37.99629721 -0.09095795 40.9013443 -0.08785057 C42.28387684 -0.08836017 43.66641656 -0.09352917 45.04891205 -0.10366249 C63.58728086 -0.22282425 63.58728086 -0.22282425 70.57519531 6.0871582 C71.10886719 6.54735352 71.64253906 7.00754883 72.19238281 7.48168945 C76.03182306 12.04724146 77.07756347 16.29387619 77.10424805 22.1628418 C77.1111113 22.82386398 77.11797455 23.48488617 77.12504578 24.16593933 C77.14323703 26.33521457 77.13948703 28.50376109 77.13378906 30.6730957 C77.1383552 32.19235466 77.14366206 33.71161155 77.14967346 35.23086548 C77.15858995 38.40993659 77.15619903 41.58875632 77.14624023 44.76782227 C77.13476345 48.82522088 77.15494877 52.88174748 77.18415737 56.9390316 C77.20257952 60.07564737 77.20221485 63.21205658 77.19651985 66.34871292 C77.19636731 67.84371792 77.20235576 69.33873752 77.21481133 70.83369064 C77.29242254 81.67696049 76.28989944 89.03718941 68.45800781 97.0480957 C63.99225225 100.1642007 59.12943156 100.53584434 53.82788086 100.59692383 C53.16846497 100.60685364 52.50904907 100.61678345 51.82965088 100.62701416 C49.66536158 100.65603313 47.50136529 100.66982241 45.33691406 100.6809082 C44.59240305 100.68656296 43.84789204 100.69221771 43.08082008 100.69804382 C39.1411868 100.72793724 35.20169828 100.74645323 31.26196289 100.75512695 C27.21336948 100.7660872 23.16612449 100.81414395 19.1179533 100.87107086 C15.98560326 100.90850055 12.85357253 100.91874396 9.72101784 100.92179871 C8.22956784 100.92781275 6.73812082 100.94373731 5.24689293 100.97016907 C-3.64415004 101.11652252 -10.59392937 100.72018391 -17.29980469 94.2746582 C-21.73664289 88.70016919 -23.54278303 83.86851383 -23.59033203 76.77539062 C-23.60309174 75.48022018 -23.61585144 74.18504974 -23.6289978 72.85063171 C-23.63205594 71.44379832 -23.63428344 70.03696291 -23.63574219 68.63012695 C-23.64217537 67.17670055 -23.64890412 65.72327542 -23.65591431 64.26985168 C-23.6678714 61.22609457 -23.67159683 58.18245081 -23.67041016 55.13867188 C-23.67020722 51.25502631 -23.69748893 47.37211462 -23.73195457 43.48864269 C-23.75429018 40.4867271 -23.75824565 37.48498614 -23.7571907 34.48299599 C-23.75953744 33.05217273 -23.76830833 31.62134397 -23.78385544 30.19060326 C-23.87500632 20.93480747 -23.64006539 14.22756008 -17.33496094 7.0324707 C-16.68398438 6.49364258 -16.03300781 5.95481445 -15.36230469 5.3996582 C-14.71390625 4.84536133 -14.06550781 4.29106445 -13.39746094 3.7199707 C-9.03089479 0.7113497 -5.25551996 0.0220389 0 0 Z M-15.32519531 12.07910156 C-18.83657816 17.77210334 -17.97290696 24.94685368 -17.89355469 31.40356445 C-17.89184129 32.88134158 -17.89191159 34.35912174 -17.89367676 35.8368988 C-17.89202859 38.92444185 -17.87342313 42.01125436 -17.84179688 45.09863281 C-17.80208523 49.04515554 -17.79775869 52.99072471 -17.8052597 56.9374094 C-17.80833687 59.98561758 -17.79618309 63.03361358 -17.77912903 66.08176994 C-17.77212647 67.53653571 -17.76897115 68.9913255 -17.76982117 70.44610786 C-17.76801274 72.48220599 -17.74429965 74.51824858 -17.71972656 76.55419922 C-17.71130737 77.71000992 -17.70288818 78.86582062 -17.69421387 80.05665588 C-17.16848486 84.34610265 -15.72876366 87.74389045 -12.76464844 90.91918945 C-8.11149805 94.47748092 -6.04752877 95.4005343 -0.21704102 95.43579102 C1.06156296 95.44539856 2.34016693 95.4550061 3.65751648 95.46490479 C5.06106386 95.46975408 6.46461331 95.47403259 7.86816406 95.4777832 C9.30585227 95.48353639 10.74354046 95.4892941 12.18122864 95.49505615 C15.20000567 95.50556993 18.21875606 95.51140934 21.23754883 95.51489258 C25.09320731 95.52036188 28.94850988 95.54435432 32.80405712 95.57286453 C35.77674866 95.59155743 38.74935588 95.59670015 41.72210121 95.59822845 C43.14258064 95.60124324 44.56305899 95.60923193 45.98348045 95.62241364 C57.87057656 95.84482887 57.87057656 95.84482887 68.01269531 90.3371582 C71.41598011 86.17758789 71.95548808 83.14174967 71.99072266 77.76538086 C71.99743988 77.12094528 72.0041571 76.4765097 72.01107788 75.81254578 C72.03003349 73.68785839 72.0339808 71.56348732 72.03613281 69.4387207 C72.0425626 67.95665356 72.0492911 66.47458769 72.05630493 64.99252319 C72.06827168 61.88731952 72.0719864 58.78222705 72.07080078 55.67700195 C72.07059766 51.70682047 72.09789489 47.73735534 72.1323452 43.76734352 C72.15463305 40.70631668 72.15863775 37.6454617 72.15758133 34.58436203 C72.15993464 33.12118436 72.16874307 31.65800176 72.18424606 30.19490433 C72.20394549 28.14367429 72.19805477 26.09398185 72.18603516 24.04272461 C72.18888519 22.8778653 72.19173523 21.71300598 72.19467163 20.5128479 C71.35036415 14.98370994 67.89863639 10.83697184 63.70019531 7.2746582 C59.88915945 5.42359991 56.8004572 5.01436549 52.58398438 4.98413086 C51.37212463 4.97137115 50.16026489 4.95861145 48.91168213 4.94546509 C47.60954773 4.94323944 46.30741333 4.94101379 44.96582031 4.9387207 C43.60447044 4.93228586 42.24312194 4.925557 40.8817749 4.91854858 C38.03052571 4.90659329 35.17939748 4.90286577 32.328125 4.90405273 C28.69566097 4.90425544 25.06398359 4.8769971 21.43170547 4.84250832 C18.61932907 4.82013477 15.80713855 4.81621841 12.99468231 4.81727219 C11.01122732 4.81380019 9.02783036 4.79219821 7.04449463 4.77017212 C-1.54934415 4.8133583 -9.21787854 5.43242707 -15.32519531 12.07910156 Z " fill="#2A3943" transform="translate(48.2998046875,24.725341796875)"/>
</svg>
